<svg viewBox="0 0 720 240" xmlns="http://www.w3.org/2000/svg" role="img" aria-label="The 4-20 mA scale with every zone named. Below 3.6 mA and above 21 mA: fault signal. 3.6 to 3.8 and 20.5 to 21: dead band. 3.8 to 4 and 20 to 20.5: NAMUR NE43 margin. 4 to 20 mA: measurement range, mapped linearly to engineering units, here 0 to 200 degrees Celsius.">
  <style>
    .lbl { font-family: ui-sans-serif, system-ui, sans-serif; font-size: 13px; fill: var(--content, #333); }
    .sub { font-family: ui-sans-serif, system-ui, sans-serif; font-size: 12px; fill: var(--secondary, #666); }
    .leg { font-family: ui-sans-serif, system-ui, sans-serif; font-size: 11px; fill: var(--content, #333); }
    .fault-lbl { font-family: ui-sans-serif, system-ui, sans-serif; font-size: 12px; font-weight: 600; fill: #d64545; }
    .sig-lbl { font-family: ui-sans-serif, system-ui, sans-serif; font-size: 13px; font-weight: 600; fill: #ffffff; }
    .tick { stroke: var(--secondary, #666); stroke-width: 1; }
    .map { stroke: var(--border, #bbb); stroke-width: 1; stroke-dasharray: 4 4; }
  </style>

  <!-- mA bar: x = 40 + mA * (640/22) -->
  <rect x="40" y="60" width="104.7" height="28" fill="#d64545" rx="4"/>
  <rect x="144.7" y="60" width="5.8" height="28" fill="var(--border, #c8c8c8)"/>
  <rect x="636.3" y="60" width="14.6" height="28" fill="var(--border, #c8c8c8)"/>
  <rect x="150.5" y="60" width="5.8" height="28" fill="#2f6fdd" opacity="0.35"/>
  <rect x="621.8" y="60" width="14.5" height="28" fill="#2f6fdd" opacity="0.35"/>
  <rect x="156.4" y="60" width="465.4" height="28" fill="#2f6fdd"/>
  <rect x="650.9" y="60" width="29.1" height="28" fill="#d64545" rx="4"/>

  <text class="sig-lbl" x="389" y="79" text-anchor="middle">measurement range</text>
  <text class="fault-lbl" x="92" y="52" text-anchor="middle">fault: fail low</text>
  <text class="fault-lbl" x="655" y="52" text-anchor="end">fault: fail high</text>

  <!-- ticks and numbers -->
  <line class="tick" x1="40" y1="88" x2="40" y2="96"/>
  <text class="sub" x="40" y="110" text-anchor="middle">0 mA</text>
  <line class="tick" x1="144.7" y1="88" x2="144.7" y2="96"/>
  <text class="sub" x="138" y="110" text-anchor="middle">3.6</text>
  <line class="tick" x1="156.4" y1="88" x2="156.4" y2="96"/>
  <text class="sub" x="164" y="110" text-anchor="middle">4</text>
  <line class="tick" x1="389" y1="88" x2="389" y2="96"/>
  <text class="sub" x="389" y="110" text-anchor="middle">12</text>
  <line class="tick" x1="621.8" y1="88" x2="621.8" y2="96"/>
  <text class="sub" x="617" y="110" text-anchor="middle">20</text>
  <line class="tick" x1="650.9" y1="88" x2="650.9" y2="96"/>
  <text class="sub" x="655" y="110" text-anchor="middle">21</text>

  <!-- mapping to engineering units -->
  <line class="map" x1="156.4" y1="96" x2="156.4" y2="146"/>
  <line class="map" x1="389" y1="96" x2="389" y2="146"/>
  <line class="map" x1="621.8" y1="96" x2="621.8" y2="146"/>
  <line x1="156.4" y1="146" x2="621.8" y2="146" stroke="var(--content, #333)" stroke-width="1.5"/>
  <line class="tick" x1="156.4" y1="142" x2="156.4" y2="150"/>
  <line class="tick" x1="389" y1="142" x2="389" y2="150"/>
  <line class="tick" x1="621.8" y1="142" x2="621.8" y2="150"/>
  <text class="lbl" x="156.4" y="168" text-anchor="middle">0 &#176;C</text>
  <text class="lbl" x="389" y="168" text-anchor="middle">100 &#176;C</text>
  <text class="lbl" x="621.8" y="168" text-anchor="middle">200 &#176;C</text>
  <text class="sub" x="389" y="190" text-anchor="middle">what your code sees, after the span (here 0-200 &#176;C) is applied</text>

  <!-- legend: every zone named with its range -->
  <rect x="40" y="212" width="12" height="12" fill="#2f6fdd" rx="2"/>
  <text class="leg" x="58" y="222">measurement range (4-20 mA)</text>
  <rect x="222" y="212" width="12" height="12" fill="#2f6fdd" opacity="0.35" rx="2"/>
  <text class="leg" x="240" y="222">NE43 margin (3.8-4/20-20.5)</text>
  <rect x="404" y="212" width="12" height="12" fill="var(--border, #c8c8c8)" rx="2"/>
  <text class="leg" x="422" y="222">dead band (3.6-3.8/20.5-21)</text>
  <rect x="586" y="212" width="12" height="12" fill="#d64545" rx="2"/>
  <text class="leg" x="604" y="222">fault (&#60;3.6/&#62;21)</text>
</svg>
